#!OML:ASF F:\VICON\USERDATA\INSTALL\rory3\rory3.ASF
:FULLY-SPECIFIED
:DEGREES
3043
root -0.0445472 15.9642 -8.29208 162.154 -169.091 -177.811
lowerback 27.868 2.62244 -5.89315
upperback 13.7756 1.70341 -1.97403
thorax -0.00929518 0.556564 0.740609
lowerneck -7.43507 -7.76578 -13.0537
upperneck -1.22691 -9.56944 12.9041
head 2.12367 -4.54906 5.55086
rclavicle -4.77083e-015 4.29375e-014
rhumerus -13.3082 31.7749 -77.666
rradius 65.204
rwrist 8.63809
rhand -26.1205 10.4401
rfingers 7.12502
rthumb 0.429358 -19.5393
lclavicle -4.77083e-015 4.29375e-014
lhumerus -15.3072 -29.051 71.498
lradius 69.3912
lwrist 6.66331
lhand -16.9802 19.5966
lfingers 7.12502
lthumb 9.25448 49.3735
rfemur -40.0026 -10.4036 4.66287
rtibia 70.123
rfoot -12.4624 -11.8826
rtoes -3.52594
lfemur -37.0086 26.199 -3.82494
ltibia 65.243
lfoot 5.75054 6.13151
ltoes 0.108741
3044
root -0.0539707 15.9709 -8.27567 162.608 -168.989 -178.106
lowerback 27.7399 2.57827 -5.67591
upperback 13.7388 1.71076 -1.89488
thorax 0.00487769 0.568555 0.705121
lowerneck -7.33546 -7.74571 -12.8864
upperneck -1.27572 -9.56182 12.8098
head 2.07882 -4.55101 5.50013
rclavicle -3.57812e-015 2.94201e-014
rhumerus -13.2016 31.78 -77.6543
rradius 65.1705
rwrist 8.65875
rhand -26.2886 10.3336
rfingers 7.12502
rthumb 0.267001 -19.646
lclavicle -3.57812e-015 2.94201e-014
lhumerus -15.4087 -29.0199 71.5133
lradius 69.4157
lwrist 6.59258
lhand -17.1482 19.558
lfingers 7.12502
lthumb 9.09236 49.342
rfemur -40.4027 -10.2449 5.11751
rtibia 70.2802
rfoot -12.8179 -11.7281
rtoes -3.34051
lfemur -37.4066 26.4041 -3.61504
ltibia 65.3508
lfoot 5.59942 5.99245
ltoes 0.00797133
3045
root -0.0620471 15.9807 -8.25412 163.027 -168.966 -178.182
lowerback 27.5566 2.55437 -5.66318
upperback 13.7129 1.69879 -1.8645
thorax 0.0582817 0.561634 0.738486
lowerneck -7.21133 -7.69649 -12.6855
upperneck -1.34668 -9.51633 12.6514
head 2.01335 -4.53604 5.42857
rclavicle 2.38542e-014 -3.26007e-014
rhumerus -13.1009 31.8178 -77.6526
rradius 65.1335
rwrist 8.69739
rhand -26.346 10.3562
rfingers 7.12502
rthumb 0.211598 -19.6235
lclavicle 2.38542e-014 -3.26007e-014
lhumerus -15.5163 -28.9716 71.5654
lradius 69.4328
lwrist 6.49605
lhand -17.374 19.3605
lfingers 7.12502
lthumb 8.87445 49.1539
rfemur -40.7905 -10.1469 5.29269
rtibia 70.4498
rfoot -13.0974 -11.4521
rtoes -2.99366
lfemur -37.7477 26.5845 -3.67193
ltibia 65.419
lfoot 5.33851 5.92314
ltoes 0.777677
3046
root -0.0695937 15.9942 -8.22812 163.344 -168.95 -178.221
lowerback 27.4442 2.539 -5.63614
upperback 13.6728 1.69427 -1.84623
thorax 0.0634367 0.560967 0.746651
lowerneck -7.1092 -7.66678 -12.5145
upperneck -1.23037 -9.50455 12.4884
head 2.01205 -4.5359 5.35369
rclavicle 3.18055e-015 -7.95139e-015
rhumerus -13.1111 31.8302 -77.7347
rradius 65.0907
rwrist 8.74537
rhand -26.328 10.5294
rfingers 7.12502
rthumb 0.228965 -19.4502
lclavicle 3.18055e-015 -7.95139e-015
lhumerus -15.7128 -28.9365 71.7126
lradius 69.4189
lwrist 6.35451
lhand -17.6793 19.1368
lfingers 7.12502
lthumb 8.57984 48.9425
rfemur -41.0401 -10.0586 5.42726
rtibia 70.6053
rfoot -13.2107 -11.2765
rtoes -3.45015
lfemur -37.9488 26.7895 -3.74101
ltibia 65.4582
lfoot 5.00052 5.86501
ltoes 0.834878
3047
root -0.0765293 16.0145 -8.20235 163.61 -168.916 -178.168
lowerback 27.3278 2.56055 -5.7074
upperback 13.6494 1.71418 -1.83041
thorax 0.0879039 0.566689 0.801395
lowerneck -7.08006 -7.65414 -12.4463
upperneck -1.02219 -9.5078 12.4045
head 2.06097 -4.53883 5.31416
rclavicle 2.22639e-014 -6.59965e-014
rhumerus -13.155 31.8272 -77.7731
rradius 65.1045
rwrist 8.78401
rhand -26.1816 10.5266
rfingers 7.12502
rthumb 0.370349 -19.4528
lclavicle 2.22639e-014 -6.59965e-014
lhumerus -15.9429 -28.8325 71.9097
lradius 69.4225
lwrist 6.15257
lhand -17.9696 18.946
lfingers 7.12502
lthumb 8.29964 48.7629
rfemur -41.2318 -9.96888 5.45775
rtibia 70.7435
rfoot -13.3596 -11.0147
rtoes -3.61183
lfemur -38.0707 27.0282 -3.89936
ltibia 65.4987
lfoot 4.58428 5.8427
ltoes 0.3628
3048
root -0.0809616 16.0388 -8.17699 163.91 -168.995 -177.888
lowerback 27.153 2.5814 -6.01583
upperback 13.6191 1.68189 -1.87831
thorax 0.135016 0.536693 0.935716
lowerneck -7.07128 -7.60968 -12.3575
upperneck -0.883186 -9.46479 12.374
head 2.08944 -4.51764 5.29184
rclavicle 1.86858e-014 7.95139e-016
rhumerus -13.1328 31.8499 -77.7702
rradius 65.1506
rwrist 8.78455
rhand -26.1967 10.3724
rfingers 7.12502
rthumb 0.355739 -19.6071
lclavicle 1.86858e-014 7.95139e-016
lhumerus -16.1532 -28.7266 72.0375
lradius 69.4403
lwrist 5.94941
lhand -18.104 18.8642
lfingers 7.12502
lthumb 8.16997 48.6863
rfemur -41.486 -10.0156 5.19932
rtibia 70.8674
rfoot -13.6553 -10.6512
rtoes -3.25886
lfemur -38.2754 27.1843 -4.40592
ltibia 65.5475
lfoot 4.0926 5.8389
ltoes 0.342163
3049
root -0.0868068 16.0527 -8.15613 164.303 -169.039 -177.943
lowerback 27.143 2.51839 -5.99577
upperback 13.5116 1.60464 -1.85486
thorax 0.0206039 0.50313 0.969816
lowerneck -7.08487 -7.57978 -12.2194
upperneck -0.671268 -9.44543 12.2718
head 2.13946 -4.50828 5.23591
rclavicle 1.23246e-014 -4.21423e-014
rhumerus -13.0998 31.9196 -77.8332
rradius 65.0967
rwrist 8.84447
rhand -26.5501 10.2236
rfingers 7.12502
rthumb 0.0144475 -19.7561
lclavicle 1.23246e-014 -4.21423e-014
lhumerus -16.4079 -28.6312 72.1722
lradius 69.3872
lwrist 5.67855
lhand -17.8323 19.1122
lfingers 7.12502
lthumb 8.43213 48.9239
rfemur -41.8258 -9.99286 5.35861
rtibia 70.9997
rfoot -13.9629 -10.5606
rtoes -3.31423
lfemur -38.6529 27.3403 -4.56732
ltibia 65.6261
lfoot 3.75464 5.75165
ltoes 0.448465
3050
root -0.0949765 16.0604 -8.13437 164.719 -168.973 -178.226
lowerback 27.2053 2.43629 -5.75792
upperback 13.3623 1.54768 -1.76501
thorax -0.176696 0.490029 0.946074
lowerneck -7.13999 -7.5546 -12.1905
upperneck -0.343705 -9.42805 12.212
head 2.23814 -4.49696 5.20684
rclavicle -1.74931e-014 4.77083e-015
rhumerus -13.1871 32.0118 -77.9627
rradius 65.0638
rwrist 9.01622
rhand -26.687 10.2205
rfingers 7.12502
rthumb -0.117784 -19.7592
lclavicle -1.74931e-014 4.77083e-015
lhumerus -16.7363 -28.5017 72.3803
lradius 69.3142
lwrist 5.33028
lhand -17.5928 19.4063
lfingers 7.12502
lthumb 8.66334 49.2085
rfemur -42.1765 -9.82532 5.81623
rtibia 71.1599
rfoot -14.2289 -10.5294
rtoes -3.54576
lfemur -39.036 27.5834 -4.4264
ltibia 65.7022
lfoot 3.55693 5.56487
ltoes -0.0384915
3051
root -0.10323 16.0711 -8.10656 165.093 -168.955 -178.333
lowerback 27.1554 2.38575 -5.67066
upperback 13.2434 1.50529 -1.72768
thorax -0.287479 0.476538 0.948895
lowerneck -7.10313 -7.51418 -12.1885
upperneck -0.124385 -9.39476 12.2587
head 2.29563 -4.47928 5.22104
rclavicle 4.73108e-014 -7.95139e-016
rhumerus -13.3549 32.0521 -78.1345
rradius 65.1358
rwrist 9.17645
rhand -26.5731 10.3404
rfingers 7.12502
rthumb -0.00780909 -19.6393
lclavicle 4.73108e-014 -7.95139e-016
lhumerus -16.994 -28.4695 72.5271
lradius 69.2358
lwrist 5.05938
lhand -17.9076 19.3815
lfingers 7.12502
lthumb 8.35949 49.196
rfemur -42.4791 -9.74666 6.0601
rtibia 71.3362
rfoot -14.4897 -10.3643
rtoes -3.75409
lfemur -39.3433 27.8224 -4.50119
ltibia 65.7472
lfoot 3.3285 5.34238
ltoes -1.00518
